<?xml version="1.0" encoding="UTF-8"?><!DOCTYPE svg PUBLIC "-//W3C//DTD SVG 1.1//EN" "http://www.w3.org/Graphics/SVG/1.1/DTD/svg11.dtd"><svg xmlns="http://www.w3.org/2000/svg" xmlns:xlink="http://www.w3.org/1999/xlink"><defs/><symbol id="activity" viewBox="0 0 24 24">
  <path stroke="none" d="M0 0h24v24H0z" fill="none"/>
  <path d="M3 12h4l3 8l4 -16l3 8h4"/>
</symbol><symbol id="heart" viewBox="0 0 24 24">
  <path stroke="none" d="M0 0h24v24H0z" fill="none"/>
  <path d="M19.5 12.572l-7.5 7.428l-7.5 -7.428a5 5 0 1 1 7.5 -6.566a5 5 0 1 1 7.5 6.572"/>
</symbol><symbol id="player-pause" viewBox="0 0 24 24">
  <path stroke="none" d="M0 0h24v24H0z" fill="none"/>
  <path d="M9 4h-2a2 2 0 0 0 -2 2v12a2 2 0 0 0 2 2h2a2 2 0 0 0 2 -2v-12a2 2 0 0 0 -2 -2z"/>
  <path d="M17 4h-2a2 2 0 0 0 -2 2v12a2 2 0 0 0 2 2h2a2 2 0 0 0 2 -2v-12a2 2 0 0 0 -2 -2z"/>
</symbol><symbol id="player-play" viewBox="0 0 24 24">
  <path stroke="none" d="M0 0h24v24H0z" fill="none"/>
  <path d="M7 4v16l13 -8z"/>
</symbol></svg>